<?xml version="1.0" encoding="utf-8"?>
<!-- Generator: Adobe Illustrator 24.3.0, SVG Export Plug-In . SVG Version: 6.00 Build 0)  -->
<svg version="1.1" id="_x2014_ÎÓÈ_x5F_1" xmlns="http://www.w3.org/2000/svg" xmlns:xlink="http://www.w3.org/1999/xlink"
	 x="0px" y="0px" viewBox="1000 1000 2800 2800" style="enable-background:new 0 0 5000 5000;" xml:space="preserve">
<style type="text/css">
	.st0{fill:transparent;}
    .st1{fill:#2c3268;}
</style>
<rect class="st0" width="5000" height="5000"/>
<g>
	<g>
		<path class="st1" d="M2095.16,3511.77c7.86,67.96,65.4,119.23,133.81,119.23h542.05c68.41,0,125.96-51.28,133.81-119.23l148.43-1210.35
			H1946.73L2095.16,3511.77z"/>
		<path class="st1" d="M3034.74,2066.78h-13.33v-66.58c0-35.22-28.55-63.77-63.77-63.77h-915.26c-35.22,0-63.77,28.55-63.77,63.77v66.58h-13.33
			c-45.43,0-82.26,36.83-82.26,82.26v100.23H3117v-100.23C3117,2103.61,3080.17,2066.78,3034.74,2066.78z"/>
	</g>
	<g>
		<path class="st1" d="M2525.23,1514.74L2525.23,1514.74c64.51,78.52,93.23,125.19,73.92,219.74c-5.96,29.19-11.91,60.22-24.73,87.11l-0.42,0.88
			c0,0,14.4-15.34,26.51-31.87c75.51-103.01,106.87-241.48,4.32-347.7l0,0c-64.73-77.27-101.71-129.55-107.31-215.07
			c-0.21-3.2-0.37-6.41-0.47-9.62c-1.25-39.53,6.73-78.81,21.52-115.48l0.81-2.01c-0.93-0.58-1.87-1.15-2.8-1.72
			c-6.65,7.11-17.52,19.16-26.05,30.7C2384.36,1273.34,2445.86,1401.75,2525.23,1514.74z"/>
		<path class="st1" d="M2408.84,1730.08L2408.84,1730.08c42.58,43.32,65.78,102.04,64.32,162.76l-0.38,15.81c0.65,1.51,4.66-5.36,10.42-16.74
			c35.9-70.99,22.61-156.97-32.77-214.08v0c-47.64-40.88-75.69-69.24-87.85-121.21c-0.51-2.16-0.97-4.34-1.39-6.51
			c-4.68-24.05-3.67-48.87,1.65-72.79l1.4-6.31c0,0-9.64,13.68-15.95,26.02C2297.69,1596.12,2348.55,1668.75,2408.84,1730.08z"/>
	</g>
	<g>
		<circle class="st0" cx="2500" cy="2835.86" r="295.46"/>
		<g>
			<path class="st1" d="M2432.64,2962.78c-4.28,4.13-9.44,7.32-15.17,9.47c-0.03,0.01-0.07,0.03-0.1,0.04c-4.14,1.54-8.94,0.64-12.76-2.9
				c-50.01-46.43-55.1-142.26-3.64-212.14c54.53-74.06,140.39-94.52,210.64-48.26c5.52,3.64,10.21,8.27,14.65,12.98
				c2.18,2.31,1.4,5.51-1.43,5.95c-60.9,9.5-103.92,26-132.23,72.07c-10.14,16.5-18.15,40.36-23.97,64.44
				C2463.03,2887.01,2462.77,2933.68,2432.64,2962.78z"/>
			<path class="st1" d="M2620.05,2922.05c-46.79,63.55-121.33,90.77-178.99,69.64c-7.42-2.72-9.72-11.98-4.17-16.52
				c9.61-7.86,18.51-16.63,25.49-26.94c36.44-53.77,21.71-90.15,43.91-126.77c20.66-34.09,46.79-60.94,104.64-79.97
				c6.29-2.07,12.88-3.42,19.64-4.02l0,0c3.78-1.2,8.47,0.89,10.68,4.69C2669.88,2791.26,2663.26,2863.37,2620.05,2922.05z"/>
		</g>
	</g>
</g>
</svg>
