<?xml version="1.0" encoding="utf-8"?>
<!-- Generator: Adobe Illustrator 24.3.0, SVG Export Plug-In . SVG Version: 6.00 Build 0)  -->
<svg version="1.1" id="_x2014_ÎÓÈ_1" xmlns="http://www.w3.org/2000/svg" xmlns:xlink="http://www.w3.org/1999/xlink" x="0px"
	 y="0px" viewBox="125 125 525 525" style="enable-background:new 0 0 800 800;" xml:space="preserve">
<style type="text/css">
	.st0{fill:transparent;}
	.st1{fill:#1D1D1B;}
</style>
<rect class="st0" width="800" height="800"/>
<g>
	<g>
		<path class="st1" d="M478.9,163.92c1.05,0.86,2.04,1.73,3,2.61C481.01,165.5,480.02,164.61,478.9,163.92z"/>
		<path class="st1" d="M580.52,239.39c-1.27,2.35-1.94,5.06-3.08,7.62c-0.01-1-0.04-2-0.1-3.01c-0.5-9.09-2.88-18.66-2.65-27.12
			c-0.86,5.86-4.59,11.68-6.03,17.58c0.72-12.45,0.35-23.87-6.52-34.93c-1.25,5.17,0.49,15.66-2.69,19.08
			c-1.21-11.89-5.84-25.64-10.83-36.41c2.89,11.48,6.24,21.45,5.23,33.6c-4.88-12.14-14.09-45.89-32.28-41.17
			c8.16,5.17,16.89,10.27,12.95,21.98c-2.43-6.49-8.54-16.24-14.42-19.51c3.91,4.39,5.99,10.91,5.1,16.84
			c-8.82-10.94-14.56-28.27-32.17-27.35c-4.74-4.69-10.12-8.27-15.1-12.99c6.3,7.85,10.61,12.96,12.63,22.86
			c-2.67-3.74-5.43-6.94-8.66-9.93c3.66,4.22,5.53,10.81,6.14,15.92C475.19,169,451.46,142.7,431.6,155.6
			c-7.48-2.28-19.72-5.99-27.27-3.77c-8.96-4.97-19.36-11.01-28.76-13.88c8.1,6.05,19.36,11.08,22.85,21.31
			c-6.05-4.03-11.78-9.82-18.87-12.66c5.18,4.51,8.8,8.74,12.51,14.5c-6.86-6.93-26.75-18.93-36.53-17.62
			c13.38,5.32,20.29,13.06,28.23,24.46c-6-7.2-15.09-10.52-23.76-13.15c-7.66-2.32-17.74-6.23-25.8-5.46
			c8.04,1.04,13.78,5.22,18.93,11.1c-7.01-3.67-22.03-10.13-29.6-7.91c4.78,0.65,9.69,3.07,13.08,6.54
			c-6.47-3.44-20.15-6.94-27.56-3.5c-13.48-2.09-26.92-1.26-30.78,8.33c-4.85,0.46-9.58,1.55-14.03,3.47
			c9.45,0.67,16.32-1.27,25.03,3.16c-7.69-1.99-21.14-2.86-28.4,1.5c4.27-0.07,9.14-0.63,12.9,1.18
			c-13.72-3.46-44.29,1.63-44.28,20.96c-4.01,2.43-7.3,6-9.41,11.09c4.51-1.82,9.15-2.8,13.87-3.8c-8.1,1.98-15.68,5.43-22.46,11.4
			c-6.93,6.1-8.5,12.38-9.6,20c-10.26,11.07-14.65,28.42-12.55,42.47c1.69,11.3,5.35,21.76,12.16,31.15
			c5.2,7.17,15.35,20.98,25.78,19.37c-3.93-2.17-8.62-4.33-12.65-7.02c-9.25-6.17-16.43-16.89-18.64-28.08
			c5.29,13.84,16.73,27.32,27.27,28.46c-8.07-8.3-15.37-13.04-19.25-24.58c-2.56-7.64-3.39-16.18-1.23-24.01
			c0.55,1.24,1.14,2.43,1.72,3.53c5.07,9.67,16.02,23.77,28.26,20.51c-7.39-2.17-14.21-8.22-18.93-15.96
			c-4.75-7.8-4.3-15.28-1.92-22.58c0.87-0.55,1.74-1.05,2.62-1.52c0.77,2.41,2.13,4.79,3.3,6.71c4.77,7.89,14.01,16.21,22.61,19.27
			c-7.66-8.12-15.3-14.86-17.06-24.36c4.45,6.41,12.45,10.4,17.51,15.03c-3.79-5.3-7.31-11.05-8.08-17.2
			c6.46-1.01,14.85,0.3,20.43,2.95c3.01,1.43,7.44,5.55,10.57,5.96c1.34,0.18,3.96-0.71,5.68-0.71c1.66,0,3.25-0.02,4.79-0.3
			c5.52-0.52,10.79-1.99,16.38-2.61c25.46-2.86,49.9-8.79,75.84-10c26.11-1.22,52.69-3.43,78.68-2.15
			c24.55,1.21,48.26,4.14,72.15,7.48c19.76,2.76,45.02,4.53,61.2,16.6C579.69,260.87,581.35,250.62,580.52,239.39z M216.67,223.31
			c-3.26,1.03-6.25,2.54-8.96,4.44c6.52-8.46,15.41-11.87,28.96-10.57c8.71,0.83,17.64,3.5,25.33,7.97
			c2.85,1.65,8.92,5.52,14.09,9.85c-0.02,0-0.04,0.01-0.06,0.01c-6.04-4.74-13.3-8.49-17.84-10.53
			C246.27,219.13,228.84,219.49,216.67,223.31z M278.7,196.18c-12.09-4.6-31.73-9.39-45.5-3.85c0.12-0.22,0.26-0.43,0.4-0.63
			c3.63-2.25,7.39-3.81,11.24-4.76c12.88-0.75,31.67,5.78,37.84,9.07c8.54,4.55,17.19,10.69,24.67,17.33
			c0.28,0.25,0.54,0.49,0.81,0.73c0.05,0.2,0.1,0.39,0.15,0.59C299.81,206.32,289.86,200.43,278.7,196.18z M315.33,169.82
			c-8.48-3.05-18.12-5.54-27.71-6.07c0.59-0.13,1.19-0.25,1.79-0.36c16.02,0.46,29.66,4.25,41.49,13.68
			C326,174.09,320.61,171.72,315.33,169.82z M408.36,154.06c9.83,2.26,22.23,8.72,23.54,17.07
			C424.52,164.11,417.23,158.97,408.36,154.06z M433.33,156.13c-0.22-0.06-0.44-0.13-0.67-0.2c14.82-4.45,29.99,5.68,33.36,21.17
			C456.12,167.58,447.09,160.27,433.33,156.13z M511.51,197.8c-5.46-8.74-8.25-18.83-14.81-27.13c-0.46-0.58-0.93-1.13-1.4-1.67
			c3.94,2.46,8.43,3.74,11.55,8.32C510.17,182.18,513.47,192.18,511.51,197.8z"/>
		<path class="st1" d="M232.01,192.84c-0.17,0.08-0.34,0.16-0.51,0.25c0.2-0.14,0.4-0.27,0.59-0.41
			C232.07,192.73,232.04,192.78,232.01,192.84z"/>
	</g>
	<g>
		<path class="st1" d="M576.62,265.32c0.05,0.27,0.13,0.55,0.22,0.82l0.23-1.63C576.79,264.74,576.56,265.01,576.62,265.32z"/>
		<path class="st1" d="M601.35,320.63c-2.55-9.81-6.67-20.45-10.56-29.97c-2.04-4.99-3.87-10.07-6.8-14.67
			c-1.95-3.07-6.01-6.37-7.16-9.86l-0.17,1.19c-17.32-9.03-40.36-9.14-60.67-11.98c-10.63-1.49-22.05-0.96-32.67-2.02
			c-10.81-1.08-22.64-1.9-33.33-1.37c-21.55,1.08-42.87,2.07-63.48,5.22c-10.91,1.67-22.24,2.93-33.19,4
			c-3.62,0.35-6.03,0.2-7.67,0.93c0.9,7.09-0.55,14.56-2.53,21.31c-2.6,8.84-5.3,17.7-8.9,26.2c-1.91,4.52-4.06,8.95-6.34,13.31
			c34.15,14.58,49.95,49.34,52.77,84.07h33.09c2.28-2.93,4.15-10.17,6.11-13.03c2.96-4.31,5.5-8.89,8.63-12.81
			c13.84-17.35,38.68-22.85,56.19-7.65c26.65,23.12,6.05,65.17-4.6,90.35c12.81,4,24.18,16.58,35.25,24.31
			c10.51,7.35,24.62,20.69,37.23,23.77c3.86-20.93,12.18-39.3,21.93-59.27c10.43-21.34,23.62-42.12,29.52-65.33
			C609.26,366.69,606.65,340.99,601.35,320.63z"/>
		<path class="st1" d="M577.33,262.67l-0.26,1.84c0.3-0.25,0.67-0.47,0.85-0.65C577.42,263.04,577.34,262.66,577.33,262.67z"/>
	</g>
	<path class="st1" d="M269.24,372c6.41-0.59,11.76,1.69,18.03,2.53c-1.22-2.59-3.49-4.52-5.67-6.53c0.73-0.2,1.3-0.48,2.17-0.63
		c-2.13-2.7-4.9-4.81-8.37-4.83c0.33-0.5,0.83-1.25,1.2-1.72c-4.82-1.55-9.25-3.4-14.38-3.61c1-0.49,1.87-1.41,2.86-1.89
		c-4.81-2.04-11.13-0.4-16.31,0.59c0.78-0.58,1.56-1.72,2.51-2.27c-5.57,0.64-10.11,3.09-15.05,4.92c0.16-0.42,0.84-0.73,1.06-1.08
		c-13.82-0.04-10.46,15.04-1.95,20.53c0.05-6.29,14.13-3.8,18.4-5.33c-0.49-0.46-1.14-0.38-1.51-0.65c5.6-3.66,14.06,0.73,19.69,1.5
		C271.84,373.48,268.73,371.76,269.24,372z"/>
	<path class="st1" d="M425.92,490.55c-4.39-22.62-5.71-46.82-9.16-69.21h-31.53c2.95,13.84,7.41,35.04-4.56,46.4
		c-0.3-0.96-1.58-2.28-1.8-3.01c-3.97,6.18-8.75,13.03-14.07,17.88c0.04-1.4-0.63-3.22-0.64-4.38c-2.48,6.1-7.58,16.55-14.71,17.7
		c0.17-1.82-0.5-4.04-0.25-5.85c-3.84,2.66-7.5,9.01-10.38,12.55c0.06-1.82-0.38-3.95-0.3-5.75c-1.08,3.5-3.69,6.4-5.72,9.6
		c-0.09-0.76-0.22-1.64-0.25-2.41c-2.93,2.22-5.1,6.57-7.22,9.71c-0.26-1.18-1.27-2.48-1.5-3.56c-1.4,2.68-2.24,5.68-3.83,8.19
		c-1.08-2.03-2.53-2.32-3.86-3.66c0.28,2.28-0.56,4.33-1.45,6.03c-0.56-0.59-1.45-1.02-2.05-1.53c-3.23,6.41-9.5,2.79-14.52,1.52
		c1.7,9.52-3.66,5.33-9.33,2.65c0.57,1.46,0.33,3.55,0.97,5.16c-8.72-0.64-14.43-8.5-21.55-13.28c1.36,0.3,2.48,0.2,3.71,0.62
		c-5.62-4.64-7.79-11.06-11.76-17.03c-0.16,1.05-0.76,1.99-0.95,3.05c-3.44-1.16-5.52-5.72-8.04-8.48
		c-0.99,0.92-2.97,1.29-3.88,2.32c0.3-2.05-0.72-3.14-0.72-5c-1.38,0.62-3.82,0.52-5.12,1.17c-0.07-0.8-0.22-1.7-0.21-2.5
		c-0.08,0.01-1.91,0.21-1.81,0.31c-0.15-0.25-0.17-0.51-0.06-0.78c-0.57,0.41-1.18,0.7-1.74,1.12c-0.43-0.28-0.15-0.48-1.68-0.32
		c-0.08-0.95-0.08-2.09-0.09-3.02c-0.39,0.42-1.35,1.24-1.9,1.7c-0.06-0.23,0.32-1.61-0.07-1.67c-5.04-0.1-12.89,1.42-14.5,7.14
		c0.93-0.11,2.06,0.16,3.05,0.05c-0.94,0.62-1.31,1.07-2.34,1.5c-1.02,3.59-2.09,6.9-2.68,10.49c1-0.26,1.73-0.76,2.56-1.33
		c0.21,0.14,1.35,1.28,1.5,1.3c1.48-1.27,3.54-1.55,5.03-2.5c0.06,2.58,1,5.1,2.82,7.01c0.41-0.84,0.8-1.12,1.32-1.83
		c2.4,2.25,5.57,5.03,8.55,6c-0.04-0.78,0.23-1.75,0.27-2.53c1.46,2.01,3.89,3.57,6.42,4.55c0.15-0.65,0.02-1.23,0.23-1.87
		c4.79,4.86,13.03,4.57,17.1,8.55c-0.26-0.93-0.28-2.21-0.6-3.08c1.21,2.78,3.17,5.66,5.9,7.07c0.15-0.6,0.09-1.14,0.26-1.72
		c2.99,3.89,6.36,6.53,9.77,9.95c-3.45,4.16,2.36,9.17,4.02,13.12c-0.86-0.92-2.75-1.68-3.78-2.55c-0.53,5.04,1.35,9.41-0.8,14.36
		c-0.75-1.37-2.54-2.6-3.2-3.7c-0.16,4.15-3.29,7.14-3.58,11.18c-6.56-6.29-6.65,1.41-13.2,1.43c-6.02,0.03-9.91-5.58-9.98-11.11
		c-0.47,1.01-1.54,1.71-2.02,2.51c-3.98-3.08-5.43-10.04-7.52-14.68c-1.72,1.84-3.29,4.54-4.9,6.55c0.28-0.63,0.55-1.26,0.8-1.9
		c-3.84,3.22-5.02,7.66-7.48,11.4c0.98-1.17,1.96-1.49,3.68-1.98c-3.79,3.35-4.12,8.02-5.85,12.41c0.63-0.12,1.04-0.29,1.65-0.46
		c-3.66,5.06-4.67,10.62-5.06,16.68c0.24-0.55,2.31-2.71,3.38-3.85c-1.3,5.74-0.49,9.68-0.08,15.51c1.3-2.48,2.51-5.16,4.06-7.56
		c-0.38,7.84,1.66,13.1,5.8,19.08c0.22-0.91,0.77-1.71,1-2.56c2.49,2.6,6.03,4.69,9.07,6.55c-0.07-0.95,0.14-2.03,0.07-3.03
		c1.7,2.32,3.8,4.59,5.86,6.33c0.41-0.79,1.13-1.5,1.5-2.33c0.19,2.31,1.08,4.34,2.67,5.84c1.89-2.46,4.39-4.83,6.71-7.18
		c-1.01,2.3-0.33,3.4,0.08,5.68c2.68-1.52,6.12-2.8,9.1-3.85c-0.77,1.98-0.37,3.8-0.47,5.87c4.64-3.27,7.53-2.75,12.6-3.3
		c6-0.65,6.12-2.09,10.81-7.23c2.88,2.07,12.97-0.6,16.52-2.07c1.79-0.74,0.55-2.48,1.92-3.23c1.35-0.74,2.9,0.39,4.21-0.6
		c2.14-1.63,3.94-4.27,6.5-5.41c2.03,3.01,6.12,3.48,6.77-0.65c1.93,0.05,3.7-0.37,5.41,0.41c-0.24-0.65-0.55-2.05-0.76-2.39
		c4.05,0.12,4.23-5.12,6.15-8.03c-0.32,1.67,0.57,3.32,1.64,5.19c0.38-4.47,4.95-8.3,8.18-11.03c-0.46,2.55,0.56,1.89,1.3,3.83
		c2.57-3.99,6.07-7.63,9.17-11.33c0.61,1.52,1.97,2.07,2.66,3.16c2.3-6.7,12.89-9.8,16.18-17.02c-0.39,2.63-0.24,2.53,1.33,4.87
		c-0.28-4.98,4.49-8.53,7.3-11.83c0.58,0.5,1.43,0.96,2,1.48c3.39-4.94,7.45-11.55,10-17.18c0.71,1.64,2.55,2.52,3.35,3.7
		c1.25-2.39,2.16-5.01,2.63-7.7c0.85,1.96,2.66,2.54,3.89,3.66c6.54-6.91,1.09-15.73,4.11-23c1.62,1.6,3.09,3.18,4.55,4.88
		c-0.44-12.27,3.46-23.59,2.94-35.73C422.5,488.67,424.25,489.64,425.92,490.55z"/>
</g>
</svg>
